<svg id="Layer_1" enable-background="new 0 0 512 512" height="512" viewBox="0 0 512 512" width="512" xmlns="http://www.w3.org/2000/svg"><path d="m480.002 286h24v-16c0-13.255-10.745-24-24-24h-162v-72h59.69l-15-24.39c-2.92-4.73-8.07-7.61-13.63-7.61h-204.12c-5.56 0-10.71 2.88-13.63 7.61l-59.31 96.39h-48c-8.837 0-16 7.163-16 16v80c0 8.837 7.163 16 16 16h64c0-30.93 25.07-56 56-56s56 25.07 56 56h112c0-30.93 25.07-56 56-56s56 25.07 56 56h56c13.255 0 24-10.745 24-24v-16h-23.59c-8.854 0-16.34-7.017-16.409-15.871-.07-8.895 7.099-16.129 15.999-16.129zm-321.79-40c-11.86 0-19.6-12.45-14.35-23.08l19.74-40c2.69-5.46 8.26-8.92 14.35-8.92h38.05v72zm73.79 0v-72h70v72z" fill="#8bc4ff"/><g fill="#2e58ff"><path d="m144 294c-32.579 0-59.531 24.475-63.482 56h-64.518v-24h16c4.418 0 8-3.582 8-8s-3.582-8-8-8h-16v-16h24c4.418 0 8-3.582 8-8s-3.582-8-8-8h-24v-24h56c2.778 0 5.357-1.441 6.813-3.807l13.362-21.713c2.315-3.764 1.143-8.69-2.62-11.007-3.765-2.316-8.691-1.142-11.007 2.62l-11.019 17.907h-59.529c-4.418 0-8 3.582-8 8v112c0 4.418 3.582 8 8 8h72.518c3.951 31.525 30.903 56 63.482 56 35.29 0 64-28.71 64-64s-28.71-64-64-64zm0 112c-26.468 0-48-21.532-48-48s21.532-48 48-48 48 21.532 48 48-21.532 48-48 48z"/><path d="m280 294c4.418 0 8-3.582 8-8s-3.582-8-8-8h-16c-4.418 0-8 3.582-8 8s3.582 8 8 8z"/><path d="m144 342c-8.822 0-16 7.178-16 16s7.178 16 16 16 16-7.178 16-16-7.178-16-16-16z"/><path d="m368 342c-8.822 0-16 7.178-16 16s7.178 16 16 16 16-7.178 16-16-7.178-16-16-16z"/><path d="m98.373 202.981c3.715 2.34 8.662 1.259 11.033-2.504 2.482-3.938 1.155-8.777-2.481-11.068-3.738-2.357-8.7-1.198-11.056 2.539s-1.234 8.678 2.504 11.033z"/><path d="m480 238h-53.529l-56.973-92.579c-4.335-7.045-12.167-11.421-20.438-11.421h-59.674l-8.585-37.773c-.827-3.642-4.066-6.227-7.801-6.227h-34c-3.735 0-6.974 2.585-7.801 6.227l-8.585 37.773h-77.674c-8.271 0-16.104 4.376-20.439 11.422l-12.302 19.99c-2.315 3.763-1.143 8.69 2.621 11.006 3.763 2.317 8.689 1.143 11.006-2.621l12.302-19.989c1.445-2.349 4.056-3.808 6.813-3.808h204.119c2.757 0 5.367 1.459 6.813 3.807l7.503 12.193h-185.43c-9.202 0-17.448 5.126-21.521 13.379l-19.74 40c-7.881 15.966 3.753 34.621 21.521 34.621h321.794c8.822 0 16 7.178 16 16v8h-16c-13.233 0-24 10.767-24 24s10.767 24 24 24h16v8c0 8.822-7.178 16-16 16h-48.518c-3.951-31.525-30.903-56-63.482-56s-59.531 24.475-63.482 56h-72.518c-4.418 0-8 3.582-8 8s3.582 8 8 8h72.518c3.951 31.525 30.903 56 63.482 56s59.531-24.475 63.482-56h48.518c17.645 0 32-14.355 32-32v-64c0-17.645-14.355-32-32-32zm-240.978-104 6.363-28h21.229l6.363 28zm168.662 104h-89.684v-56h55.222zm-105.684 0h-70v-56h70zm-150.968-11.541 19.74-39.999c1.357-2.751 4.106-4.46 7.174-4.46h38.054v56h-57.794c-5.918 0-9.802-6.215-7.174-11.541zm216.968 179.541c-26.468 0-48-21.532-48-48s21.532-48 48-48 48 21.532 48 48-21.532 48-48 48zm112-96c-4.411 0-8-3.589-8-8s3.589-8 8-8h16v16z"/></g></svg>