<?xml version="1.0" encoding="iso-8859-1"?>
<!-- Generator: Adobe Illustrator 19.0.0, SVG Export Plug-In . SVG Version: 6.00 Build 0)  -->
<svg version="1.1" id="Capa_1" xmlns="http://www.w3.org/2000/svg" xmlns:xlink="http://www.w3.org/1999/xlink" x="0px" y="0px"
	 viewBox="0 0 512 512" style="enable-background:new 0 0 512 512;" xml:space="preserve">
<path style="fill:#BEF2FF;" d="M114.526,33.684h282.947c44.652,0,80.842,36.19,80.842,80.842v282.947
	c0,44.652-36.19,80.842-80.842,80.842H114.526c-44.652,0-80.842-36.19-80.842-80.842V114.526
	C33.684,69.875,69.875,33.684,114.526,33.684z"/>
<g>
	<path style="fill:#4F7097;" d="M397.474,512H114.526C51.308,511.919,0.081,460.692,0,397.474V114.526
		C0.081,51.308,51.308,0.081,114.526,0h282.947C460.692,0.081,511.919,51.308,512,114.526v282.947
		C511.919,460.692,460.692,511.919,397.474,512z M114.526,67.368c-26.045,0-47.158,21.113-47.158,47.158v282.947
		c0,26.045,21.113,47.158,47.158,47.158h282.947c26.045,0,47.158-21.113,47.158-47.158V114.526
		c0-26.045-21.113-47.158-47.158-47.158H114.526z"/>
	<path style="fill:#4F7097;" d="M323.368,229.053h-40.421v-40.421c0-14.888-12.059-26.947-26.947-26.947
		c-14.888,0-26.947,12.059-26.947,26.947v40.421h-40.421c-14.888,0-26.947,12.059-26.947,26.947
		c0,14.888,12.059,26.947,26.947,26.947h40.421v40.421c0,14.888,12.059,26.947,26.947,26.947c14.888,0,26.947-12.059,26.947-26.947
		v-40.421h40.421c14.888,0,26.947-12.059,26.947-26.947C350.316,241.112,338.257,229.053,323.368,229.053z"/>
</g>
<g>
</g>
<g>
</g>
<g>
</g>
<g>
</g>
<g>
</g>
<g>
</g>
<g>
</g>
<g>
</g>
<g>
</g>
<g>
</g>
<g>
</g>
<g>
</g>
<g>
</g>
<g>
</g>
<g>
</g>
</svg>
