<svg height="512" viewBox="0 0 512 512" width="512" xmlns="http://www.w3.org/2000/svg"><g><g fill="#57a4ff"><path d="m248 48h-80l-8-32h96z"/><path d="m240 228v40a19.994 19.994 0 0 0 20 20h72a19.917 19.917 0 0 0 12-4v52h-64l-32 32v-32h-12a19.994 19.994 0 0 1 -20-20v-184a19.994 19.994 0 0 1 20-20h108v56h-20a19.994 19.994 0 0 0 -20 20v20h-44a19.994 19.994 0 0 0 -20 20z"/><path d="m256 16-8 32h-80l-8-32z"/><path d="m420 112h-184a19.994 19.994 0 0 0 -20 20v184a19.994 19.994 0 0 0 20 20h12v32l32-32h140a19.994 19.994 0 0 0 20-20v-184a19.994 19.994 0 0 0 -20-20zm-4 116a19.994 19.994 0 0 1 -20 20h-52v36a19.917 19.917 0 0 1 -12 4h-72a19.994 19.994 0 0 1 -20-20v-40a19.994 19.994 0 0 1 20-20h44v-20a19.994 19.994 0 0 1 20-20h72a19.994 19.994 0 0 1 20 20z"/><path d="m352 248v20a19.967 19.967 0 0 1 -8 16v-36z"/></g><g fill="#004fac"><path d="m232 464h-48a8 8 0 0 0 0 16h48a8 8 0 0 0 0-16z"/><path d="m420 104h-68v-68a28.031 28.031 0 0 0 -28-28h-232a28.031 28.031 0 0 0 -28 28v440a28.031 28.031 0 0 0 28 28h232a28.031 28.031 0 0 0 28-28v-132h68a28.031 28.031 0 0 0 28-28v-184a28.031 28.031 0 0 0 -28-28zm-174.25-80-4 16h-67.5l-4-16zm90.25 452a12.01 12.01 0 0 1 -12 12h-232a12.01 12.01 0 0 1 -12-12v-440a12.01 12.01 0 0 1 12-12h61.75l6.49 25.94a8 8 0 0 0 7.76 6.06h80a8 8 0 0 0 7.76-6.06l6.49-25.94h61.75a12.01 12.01 0 0 1 12 12v68h-100a28.031 28.031 0 0 0 -28 28v184a28.031 28.031 0 0 0 28 28h4v24a8 8 0 0 0 13.66 5.66l29.65-29.66h52.69zm96-160a12.01 12.01 0 0 1 -12 12h-140a8.008 8.008 0 0 0 -5.66 2.34l-18.34 18.35v-12.69a8 8 0 0 0 -8-8h-12a12.01 12.01 0 0 1 -12-12v-184a12.01 12.01 0 0 1 12-12h184a12.01 12.01 0 0 1 12 12z"/><path d="m396 160h-72a28.032 28.032 0 0 0 -28 28v12h-36a28.032 28.032 0 0 0 -28 28v40a28.032 28.032 0 0 0 28 28h72a28.032 28.032 0 0 0 28-28v-12h36a28.032 28.032 0 0 0 28-28v-40a28.032 28.032 0 0 0 -28-28zm-52 108a12.013 12.013 0 0 1 -12 12h-72a12.013 12.013 0 0 1 -12-12v-40a12.013 12.013 0 0 1 12-12h36v12a28.032 28.032 0 0 0 28 28h20zm0-28h-20a12.013 12.013 0 0 1 -12-12v-12h20a12.013 12.013 0 0 1 12 12zm64-12a12.013 12.013 0 0 1 -12 12h-36v-12a28.032 28.032 0 0 0 -28-28h-20v-12a12.013 12.013 0 0 1 12-12h72a12.013 12.013 0 0 1 12 12z"/></g></g></svg>