<svg width="20" height="20" viewBox="0 0 20 20" fill="none" xmlns="http://www.w3.org/2000/svg">
<path d="M19.743 10.331L10.743 0.331003C10.364 -0.0909965 9.636 -0.0909965 9.257 0.331003L0.257002 10.331C-0.0079976 10.624 -0.0739977 11.046 0.0870023 11.407C0.247002 11.768 0.605002 12 1 12H3V19C3 19.552 3.447 20 4 20H7C7.553 20 8 19.552 8 19V15H12V19C12 19.552 12.447 20 13 20H16C16.553 20 17 19.552 17 19V12H19C19.395 12 19.753 11.768 19.913 11.407C20.074 11.046 20.008 10.625 19.743 10.331Z" fill="#06DF1B"/>
</svg>
