<svg width="70" height="70" viewBox="0 0 70 70" fill="none" xmlns="http://www.w3.org/2000/svg">
<path d="M11.7687 45.1471C11.7016 45.6546 11.6666 46.1621 11.6666 46.6667C11.6666 53.6025 17.9025 59.1617 24.8529 58.2283C26.8741 61.8275 30.7241 64.1667 35 64.1667C39.2758 64.1667 43.1258 61.8275 45.1471 58.2283C52.0829 59.1617 58.3333 53.6025 58.3333 46.6667C58.3333 46.1621 58.2983 45.6546 58.2312 45.1471C61.8275 43.1258 64.1667 39.2729 64.1667 35C64.1667 30.7271 61.8275 26.8741 58.2312 24.8529C58.2983 24.3454 58.3333 23.8379 58.3333 23.3333C58.3333 16.3975 52.0829 10.8266 45.1471 11.7716C43.1258 8.17248 39.2758 5.83331 35 5.83331C30.7241 5.83331 26.8741 8.17248 24.8529 11.7716C17.9025 10.8266 11.6666 16.3975 11.6666 23.3333C11.6666 23.8379 11.7016 24.3454 11.7687 24.8529C8.17248 26.8741 5.83331 30.7271 5.83331 35C5.83331 39.2729 8.17248 43.1258 11.7687 45.1471ZM15.9746 29.3883L19.1887 28.5337L17.9229 25.4625C17.6458 24.7916 17.5 24.0537 17.5 23.3333C17.5 20.1162 20.1162 17.5 23.3333 17.5C24.0537 17.5 24.7887 17.6458 25.4625 17.9229L28.5366 19.1887L29.3912 15.9746C30.065 13.4371 32.3721 11.6666 35 11.6666C37.6279 11.6666 39.935 13.4371 40.6087 15.9746L41.4633 19.1887L44.5375 17.9229C45.2112 17.6458 45.9462 17.5 46.6667 17.5C49.8837 17.5 52.5 20.1162 52.5 23.3333C52.5 24.0537 52.3542 24.7916 52.0771 25.4625L50.8112 28.5337L54.0254 29.3883C56.5629 30.065 58.3333 32.3721 58.3333 35C58.3333 37.6279 56.5629 39.935 54.0254 40.6116L50.8112 41.4662L52.0771 44.5375C52.3542 45.2083 52.5 45.9462 52.5 46.6667C52.5 49.8837 49.8837 52.5 46.6667 52.5C45.9462 52.5 45.2112 52.3542 44.5375 52.0771L41.4633 50.8112L40.6087 54.0254C39.935 56.5629 37.6279 58.3333 35 58.3333C32.3721 58.3333 30.065 56.5629 29.3912 54.0254L28.5366 50.8112L25.4625 52.0771C24.7887 52.3542 24.0537 52.5 23.3333 52.5C20.1162 52.5 17.5 49.8837 17.5 46.6667C17.5 45.9462 17.6458 45.2083 17.9229 44.5375L19.1887 41.4662L15.9746 40.6116C13.4371 39.935 11.6666 37.6279 11.6666 35C11.6666 32.3721 13.4371 30.065 15.9746 29.3883Z" fill="#06DF1B"/>
<path d="M45.9142 31.2375L41.8075 27.0958L32.0921 36.7179L28.3121 32.9379L24.1879 37.0621L32.0746 44.9488L45.9142 31.2375Z" fill="#06DF1B"/>
</svg>
