<svg id="icon" height="512" viewBox="0 0 128 128" width="512" xmlns="http://www.w3.org/2000/svg"><path d="m87.6 42.546a2.326 2.326 0 0 1 -1.717-.6c-3.983-3.983 12.874-24.06 20.575-31.76 9.764-9.765 16.087-12.532 19.9-8.717s1.045 10.14-8.718 19.9c-6.903 6.907-23.76 21.177-30.04 21.177zm34.8-40.675c-3.185 0-8.049 3.254-14.523 9.729a146.391 146.391 0 0 0 -15.237 18.073c-5.447 7.778-5.687 10.514-5.343 10.859s3.083.1 10.858-5.343a146.391 146.391 0 0 0 18.073-15.232c8.557-8.557 11.49-14.3 8.718-17.074a3.46 3.46 0 0 0 -2.546-1.012z" fill="#2f3a5a"/><path d="m102.9 71.262 3.389-32.48a6.677 6.677 0 0 0 -1.917-5.415l-9.572-9.567a6.677 6.677 0 0 0 -5.415-1.917l-32.48 3.389a6.67 6.67 0 0 0 -4.032 1.917l-49.917 49.923a6.68 6.68 0 0 0 0 9.447l38.656 38.656a6.68 6.68 0 0 0 9.447 0l49.921-49.921a6.67 6.67 0 0 0 1.92-4.032zm-21.2-24.795a7.152 7.152 0 1 1 10.114 0 7.147 7.147 0 0 1 -10.114 0z" fill="#ef5361"/><path d="m102.9 71.262 3.389-32.48a6.66 6.66 0 0 0 -.662-3.666l-3.027 28.972a6.67 6.67 0 0 1 -1.917 4.032l-49.92 49.921a6.68 6.68 0 0 1 -9.447 0l-38.656-38.656a6.431 6.431 0 0 1 -.751-.909 6.675 6.675 0 0 0 1.047 8.083l38.656 38.656a6.68 6.68 0 0 0 9.447 0l49.921-49.921a6.67 6.67 0 0 0 1.92-4.032z" fill="#da2a47"/><path d="m46.336 128.171a7.628 7.628 0 0 1 -5.43-2.25l-38.657-38.655a7.689 7.689 0 0 1 0-10.861l49.922-49.921a7.7 7.7 0 0 1 4.635-2.2l32.48-3.39a7.655 7.655 0 0 1 6.226 2.2l9.565 9.565a7.654 7.654 0 0 1 2.205 6.225l-3.391 32.482a7.7 7.7 0 0 1 -2.203 4.634l-49.921 49.922a7.628 7.628 0 0 1 -5.431 2.249zm43.751-105.323a5.8 5.8 0 0 0 -.595.031l-32.479 3.39a5.7 5.7 0 0 0 -3.428 1.631l-49.922 49.919a5.688 5.688 0 0 0 0 8.033l38.657 38.656a5.68 5.68 0 0 0 8.032 0l49.921-49.921a5.689 5.689 0 0 0 1.629-3.428l3.39-32.48a5.663 5.663 0 0 0 -1.63-4.6l-9.562-9.571a5.655 5.655 0 0 0 -4.013-1.66zm-3.326 26.71a8.147 8.147 0 1 1 5.765-2.383 8.125 8.125 0 0 1 -5.765 2.383zm0-14.3a6.149 6.149 0 1 0 4.35 1.8 6.133 6.133 0 0 0 -4.349-1.796z" fill="#2f3a5a"/><g fill="#f0f5f9"><path d="m77.642 69.953h-36.847a1 1 0 0 1 0-2h36.847a1 1 0 0 1 0 2z"/><path d="m59.184 63.564a7.087 7.087 0 1 1 5.011-12.1 7.087 7.087 0 0 1 -5.011 12.1zm0-12.172a5.084 5.084 0 1 0 3.6 1.487 5.072 5.072 0 0 0 -3.6-1.487z"/><path d="m59.184 88.588a7.087 7.087 0 1 1 5.011-12.1 7.087 7.087 0 0 1 -5.011 12.1zm0-12.172a5.084 5.084 0 1 0 3.6 1.487 5.073 5.073 0 0 0 -3.6-1.487z"/><path d="m53.973 102.86a1 1 0 0 1 -.707-.293l-27.666-27.661a1 1 0 0 1 1.414-1.414l27.666 27.661a1 1 0 0 1 -.707 1.707z"/><path d="m47.563 109.269a1 1 0 0 1 -.707-.293l-27.656-27.661a1 1 0 0 1 1.409-1.415l27.661 27.661a1 1 0 0 1 -.707 1.707z"/></g><path d="m87.6 42.546a2.326 2.326 0 0 1 -1.717-.6 1 1 0 0 1 1.417-1.414c.348.345 3.083.1 10.858-5.343a146.391 146.391 0 0 0 18.073-15.232c8.557-8.557 11.49-14.3 8.718-17.074a1 1 0 0 1 1.414-1.414c3.815 3.815 1.045 10.14-8.718 19.9-6.908 6.907-23.765 21.176-30.045 21.177z" fill="#2f3a5a"/></svg>