<svg width="18" height="18" viewBox="0 0 18 18" fill="none" xmlns="http://www.w3.org/2000/svg">
<path d="M17.283 7.356H8.956V10.807H13.748C13.302 13 11.435 14.26 8.956 14.26C6.033 14.26 3.677 11.904 3.677 8.98C3.677 6.057 6.033 3.701 8.956 3.701C10.215 3.701 11.353 4.148 12.246 4.879L14.846 2.28C13.262 0.898997 11.231 0.0469971 8.956 0.0469971C4.002 0.0469971 0.0220032 4.026 0.0220032 8.981C0.0220032 13.936 4.001 17.915 8.956 17.915C13.423 17.915 17.485 14.666 17.485 8.981C17.485 8.453 17.404 7.884 17.283 7.356Z" fill="#EC0F0F"/>
</svg>
