<svg width="17" height="19" viewBox="0 0 17 19" fill="none" xmlns="http://www.w3.org/2000/svg">
<path d="M13.543 6.028C13.52 7.531 13.02 9.566 10.676 10.355C11.41 8.609 11.522 6.938 11.002 5.376C10.307 3.279 7.988 1.641 6.445 0.749001C5.918 0.443001 5.242 0.823001 5.252 1.432C5.272 2.544 4.934 4.169 3.293 5.81C1.107 7.994 0 10.251 0 12.517C0 15.362 2 19 6 19C1.959 14.959 5 11.517 5 11.517C5.846 17.431 9.988 19 12 19C13.711 19 17 17.75 17 12.552C17 9.419 15.668 7.041 14.615 5.653C14.268 5.195 13.551 5.455 13.543 6.028Z" fill="#232222"/>
</svg>
