<svg width="512" height="454" viewBox="0 0 512 454" fill="none" xmlns="http://www.w3.org/2000/svg">
<path d="M380.867 286.905H508.823C503.378 268.522 491.896 234.646 473.206 203.538H330.856L380.867 286.905Z" fill="#BEF2FF"/>
<path d="M258.13 272.651L188.692 173.456H478.196C471.289 152.468 455.641 117.055 421.808 81.05C373.665 29.815 303.503 0.429993 229.313 0.429993H221.405C162.266 0.429993 106.665 23.46 64.848 65.278C23.03 107.095 0 162.694 0 221.834V232.165C0 291.305 23.03 346.905 64.848 388.722C106.665 430.54 162.266 453.57 221.405 453.57H497.749L512 316.988H343.285C309.397 316.988 277.563 300.414 258.13 272.651ZM433.714 365.07H461.997V395.274H433.714V365.07ZM367.777 365.07H396.061V395.274H367.777V365.07Z" fill="#BEF2FF"/>
<path d="M295.774 203.538H246.47L282.773 255.4C296.583 275.127 319.204 286.905 343.285 286.905H345.785L295.774 203.538Z" fill="#BEF2FF"/>
</svg>
